<svg xmlns="http://www.w3.org/2000/svg" xmlns:xlink="http://www.w3.org/1999/xlink" width="500" zoomAndPan="magnify" viewBox="0 0 375 374.999991" height="500" preserveAspectRatio="xMidYMid meet" version="1.0"><defs><clipPath id="a0196642fd"><path d="M 101 61 L 315 61 L 315 274 L 101 274 Z M 101 61 " clip-rule="nonzero"/></clipPath><clipPath id="0e3f5082c0"><path d="M 96.757812 187.871094 L 284.125 0.5 L 375 91.375 L 187.628906 278.742188 Z M 96.757812 187.871094 " clip-rule="nonzero"/></clipPath><clipPath id="e37180d6a7"><path d="M 96.757812 187.871094 L 284.125 0.5 L 375 91.375 L 187.628906 278.742188 Z M 96.757812 187.871094 " clip-rule="nonzero"/></clipPath><clipPath id="a2ae7f2a86"><path d="M 96.757812 187.871094 L 284.125 0.5 L 375 91.375 L 187.628906 278.742188 Z M 96.757812 187.871094 " clip-rule="nonzero"/></clipPath><clipPath id="a822bdc1cf"><path d="M 232 5 L 371 5 L 371 143 L 232 143 Z M 232 5 " clip-rule="nonzero"/></clipPath><clipPath id="e326324318"><path d="M 96.757812 187.871094 L 284.125 0.5 L 375 91.375 L 187.628906 278.742188 Z M 96.757812 187.871094 " clip-rule="nonzero"/></clipPath><clipPath id="0c1d17cc48"><path d="M 96.757812 187.871094 L 284.125 0.5 L 375 91.375 L 187.628906 278.742188 Z M 96.757812 187.871094 " clip-rule="nonzero"/></clipPath><clipPath id="a0c03cd8b5"><path d="M 96.757812 187.871094 L 284.125 0.5 L 375 91.375 L 187.628906 278.742188 Z M 96.757812 187.871094 " clip-rule="nonzero"/></clipPath><clipPath id="a751ad92dd"><path d="M 96 54 L 321 54 L 321 278.839844 L 96 278.839844 Z M 96 54 " clip-rule="nonzero"/></clipPath><clipPath id="0197d5853d"><path d="M 96.757812 187.871094 L 284.125 0.5 L 375 91.375 L 187.628906 278.742188 Z M 96.757812 187.871094 " clip-rule="nonzero"/></clipPath><clipPath id="6b7e4261fc"><path d="M 96.757812 187.871094 L 284.125 0.5 L 375 91.375 L 187.628906 278.742188 Z M 96.757812 187.871094 " clip-rule="nonzero"/></clipPath><clipPath id="eb021a9278"><path d="M 96.757812 187.871094 L 284.125 0.5 L 375 91.375 L 187.628906 278.742188 Z M 96.757812 187.871094 " clip-rule="nonzero"/></clipPath><clipPath id="69ffa45959"><path d="M 244 20 L 355 20 L 355 131 L 244 131 Z M 244 20 " clip-rule="nonzero"/></clipPath><clipPath id="146afc5f24"><path d="M 96.757812 187.871094 L 284.125 0.5 L 375 91.375 L 187.628906 278.742188 Z M 96.757812 187.871094 " clip-rule="nonzero"/></clipPath><clipPath id="0be86abf32"><path d="M 96.757812 187.871094 L 284.125 0.5 L 375 91.375 L 187.628906 278.742188 Z M 96.757812 187.871094 " clip-rule="nonzero"/></clipPath><clipPath id="92b43809c5"><path d="M 96.757812 187.871094 L 284.125 0.5 L 375 91.375 L 187.628906 278.742188 Z M 96.757812 187.871094 " clip-rule="nonzero"/></clipPath><clipPath id="6b76d6b31d"><path d="M 60 61 L 274 61 L 274 274 L 60 274 Z M 60 61 " clip-rule="nonzero"/></clipPath><clipPath id="b48a8c6ad3"><path d="M 187.371094 278.742188 L 0 91.375 L 90.875 0.5 L 278.242188 187.871094 Z M 187.371094 278.742188 " clip-rule="nonzero"/></clipPath><clipPath id="ad28f00304"><path d="M 187.371094 278.742188 L 0 91.375 L 90.875 0.5 L 278.242188 187.871094 Z M 187.371094 278.742188 " clip-rule="nonzero"/></clipPath><clipPath id="5fbb4a2036"><path d="M 187.371094 278.742188 L 0 91.375 L 90.875 0.5 L 278.242188 187.871094 Z M 187.371094 278.742188 " clip-rule="nonzero"/></clipPath><clipPath id="1b426e193c"><path d="M 4 5 L 143 5 L 143 144 L 4 144 Z M 4 5 " clip-rule="nonzero"/></clipPath><clipPath id="2631758407"><path d="M 187.371094 278.742188 L 0 91.375 L 90.875 0.5 L 278.242188 187.871094 Z M 187.371094 278.742188 " clip-rule="nonzero"/></clipPath><clipPath id="de3c1dcf91"><path d="M 187.371094 278.742188 L 0 91.375 L 90.875 0.5 L 278.242188 187.871094 Z M 187.371094 278.742188 " clip-rule="nonzero"/></clipPath><clipPath id="73a21af101"><path d="M 187.371094 278.742188 L 0 91.375 L 90.875 0.5 L 278.242188 187.871094 Z M 187.371094 278.742188 " clip-rule="nonzero"/></clipPath><clipPath id="60af00a230"><path d="M 54 54 L 279 54 L 279 278.839844 L 54 278.839844 Z M 54 54 " clip-rule="nonzero"/></clipPath><clipPath id="e227a13b2a"><path d="M 187.371094 278.742188 L 0 91.375 L 90.875 0.5 L 278.242188 187.871094 Z M 187.371094 278.742188 " clip-rule="nonzero"/></clipPath><clipPath id="3d17b40b9a"><path d="M 187.371094 278.742188 L 0 91.375 L 90.875 0.5 L 278.242188 187.871094 Z M 187.371094 278.742188 " clip-rule="nonzero"/></clipPath><clipPath id="282c0c8e53"><path d="M 187.371094 278.742188 L 0 91.375 L 90.875 0.5 L 278.242188 187.871094 Z M 187.371094 278.742188 " clip-rule="nonzero"/></clipPath><clipPath id="9b90d48e66"><path d="M 20 20 L 131 20 L 131 131 L 20 131 Z M 20 20 " clip-rule="nonzero"/></clipPath><clipPath id="71687ac805"><path d="M 187.371094 278.742188 L 0 91.375 L 90.875 0.5 L 278.242188 187.871094 Z M 187.371094 278.742188 " clip-rule="nonzero"/></clipPath><clipPath id="d19262515d"><path d="M 187.371094 278.742188 L 0 91.375 L 90.875 0.5 L 278.242188 187.871094 Z M 187.371094 278.742188 " clip-rule="nonzero"/></clipPath><clipPath id="d2fa68c247"><path d="M 187.371094 278.742188 L 0 91.375 L 90.875 0.5 L 278.242188 187.871094 Z M 187.371094 278.742188 " clip-rule="nonzero"/></clipPath><clipPath id="8e6071a1d1"><rect x="0" width="375" y="0" height="279"/></clipPath></defs><g transform="matrix(1, 0, 0, 1, 0, 37)"><g clip-path="url(#8e6071a1d1)"><g clip-path="url(#a0196642fd)"><g clip-path="url(#0e3f5082c0)"><g clip-path="url(#e37180d6a7)"><g clip-path="url(#a2ae7f2a86)"><path fill="#ead7af" d="M 314.421875 146.988281 L 314.421875 142.203125 L 308.195312 135.972656 C 308.003906 136.164062 307.800781 136.332031 307.578125 136.480469 C 307.355469 136.628906 307.121094 136.753906 306.875 136.855469 C 306.628906 136.960938 306.375 137.035156 306.113281 137.089844 C 305.851562 137.140625 305.585938 137.167969 305.320312 137.167969 C 305.054688 137.167969 304.789062 137.140625 304.527344 137.089844 C 304.265625 137.039062 304.011719 136.960938 303.765625 136.859375 C 303.515625 136.757812 303.28125 136.632812 303.0625 136.484375 C 302.839844 136.335938 302.632812 136.167969 302.445312 135.976562 C 302.257812 135.789062 302.089844 135.582031 301.941406 135.359375 C 301.792969 135.140625 301.667969 134.90625 301.566406 134.65625 C 301.464844 134.410156 301.386719 134.15625 301.335938 133.894531 C 301.28125 133.632812 301.257812 133.371094 301.257812 133.101562 C 301.257812 132.835938 301.285156 132.570312 301.335938 132.308594 C 301.386719 132.046875 301.464844 131.792969 301.566406 131.546875 C 301.667969 131.300781 301.792969 131.066406 301.941406 130.84375 C 302.089844 130.621094 302.257812 130.417969 302.449219 130.230469 L 297.707031 125.484375 C 297.515625 125.675781 297.3125 125.84375 297.089844 125.992188 C 296.867188 126.140625 296.632812 126.265625 296.386719 126.367188 C 296.140625 126.46875 295.886719 126.546875 295.625 126.597656 C 295.363281 126.652344 295.097656 126.675781 294.832031 126.675781 C 294.5625 126.675781 294.296875 126.652344 294.035156 126.597656 C 293.773438 126.546875 293.519531 126.46875 293.273438 126.367188 C 293.027344 126.265625 292.792969 126.140625 292.570312 125.992188 C 292.347656 125.84375 292.144531 125.675781 291.953125 125.484375 C 291.765625 125.296875 291.597656 125.09375 291.449219 124.871094 C 291.300781 124.648438 291.175781 124.414062 291.074219 124.167969 C 290.972656 123.921875 290.894531 123.664062 290.839844 123.402344 C 290.789062 123.140625 290.761719 122.878906 290.761719 122.609375 C 290.761719 122.34375 290.789062 122.078125 290.839844 121.816406 C 290.894531 121.554688 290.972656 121.300781 291.074219 121.054688 C 291.175781 120.808594 291.300781 120.574219 291.449219 120.351562 C 291.597656 120.128906 291.765625 119.925781 291.953125 119.734375 L 287.21875 115 C 287.03125 115.1875 286.824219 115.359375 286.605469 115.507812 C 286.382812 115.65625 286.148438 115.78125 285.902344 115.882812 C 285.65625 115.984375 285.398438 116.0625 285.136719 116.113281 C 284.875 116.167969 284.613281 116.191406 284.34375 116.191406 C 284.078125 116.191406 283.8125 116.167969 283.550781 116.113281 C 283.289062 116.0625 283.035156 115.984375 282.789062 115.882812 C 282.542969 115.78125 282.308594 115.65625 282.085938 115.507812 C 281.863281 115.359375 281.660156 115.191406 281.46875 115.003906 C 281.28125 114.8125 281.113281 114.609375 280.964844 114.386719 C 280.816406 114.164062 280.691406 113.929688 280.589844 113.683594 C 280.488281 113.4375 280.410156 113.183594 280.359375 112.921875 C 280.304688 112.660156 280.28125 112.394531 280.28125 112.128906 C 280.28125 111.859375 280.304688 111.597656 280.359375 111.335938 C 280.410156 111.074219 280.488281 110.820312 280.589844 110.570312 C 280.691406 110.324219 280.816406 110.089844 280.96875 109.871094 C 281.117188 109.648438 281.285156 109.441406 281.472656 109.253906 L 276.726562 104.507812 C 276.539062 104.695312 276.332031 104.863281 276.109375 105.011719 C 275.890625 105.160156 275.65625 105.289062 275.410156 105.390625 C 275.160156 105.492188 274.90625 105.570312 274.644531 105.621094 C 274.382812 105.675781 274.121094 105.699219 273.851562 105.699219 C 273.585938 105.699219 273.320312 105.675781 273.058594 105.621094 C 272.796875 105.570312 272.542969 105.492188 272.296875 105.390625 C 272.050781 105.289062 271.816406 105.164062 271.59375 105.015625 C 271.371094 104.867188 271.167969 104.699219 270.976562 104.511719 C 270.789062 104.320312 270.621094 104.117188 270.472656 103.894531 C 270.324219 103.671875 270.199219 103.4375 270.097656 103.191406 C 269.992188 102.945312 269.917969 102.691406 269.863281 102.429688 C 269.8125 102.167969 269.789062 101.902344 269.789062 101.636719 C 269.789062 101.367188 269.8125 101.105469 269.867188 100.84375 C 269.917969 100.578125 269.996094 100.324219 270.097656 100.078125 C 270.199219 99.832031 270.324219 99.597656 270.472656 99.375 C 270.621094 99.15625 270.792969 98.949219 270.980469 98.761719 L 266.242188 94.023438 C 266.054688 94.210938 265.847656 94.382812 265.628906 94.53125 C 265.40625 94.679688 265.171875 94.804688 264.925781 94.90625 C 264.679688 95.007812 264.425781 95.085938 264.164062 95.136719 C 263.902344 95.191406 263.636719 95.214844 263.371094 95.21875 C 263.101562 95.21875 262.835938 95.191406 262.574219 95.140625 C 262.3125 95.085938 262.058594 95.011719 261.8125 94.90625 C 261.566406 94.804688 261.332031 94.679688 261.109375 94.53125 C 260.886719 94.382812 260.683594 94.214844 260.492188 94.027344 C 260.304688 93.839844 260.136719 93.632812 259.988281 93.410156 C 259.839844 93.1875 259.714844 92.953125 259.613281 92.707031 C 259.511719 92.460938 259.433594 92.207031 259.382812 91.945312 C 259.328125 91.683594 259.304688 91.417969 259.304688 91.152344 C 259.304688 90.882812 259.332031 90.621094 259.382812 90.359375 C 259.433594 90.097656 259.511719 89.84375 259.613281 89.597656 C 259.71875 89.347656 259.84375 89.113281 259.992188 88.894531 C 260.140625 88.671875 260.308594 88.464844 260.496094 88.277344 L 255.761719 83.539062 C 255.570312 83.730469 255.367188 83.898438 255.144531 84.046875 C 254.921875 84.195312 254.6875 84.320312 254.441406 84.421875 C 254.195312 84.523438 253.941406 84.601562 253.675781 84.652344 C 253.414062 84.707031 253.152344 84.730469 252.882812 84.730469 C 252.617188 84.730469 252.351562 84.707031 252.089844 84.652344 C 251.828125 84.601562 251.574219 84.523438 251.328125 84.421875 C 251.082031 84.320312 250.847656 84.195312 250.625 84.046875 C 250.402344 83.898438 250.199219 83.730469 250.007812 83.539062 C 249.820312 83.351562 249.652344 83.144531 249.503906 82.925781 C 249.355469 82.703125 249.230469 82.46875 249.128906 82.222656 C 249.023438 81.972656 248.949219 81.71875 248.894531 81.457031 C 248.84375 81.195312 248.816406 80.933594 248.816406 80.664062 C 248.816406 80.398438 248.84375 80.132812 248.894531 79.871094 C 248.949219 79.609375 249.023438 79.355469 249.128906 79.109375 C 249.230469 78.863281 249.355469 78.628906 249.503906 78.40625 C 249.652344 78.183594 249.820312 77.976562 250.007812 77.789062 L 245.273438 73.050781 C 245.082031 73.242188 244.878906 73.410156 244.65625 73.558594 C 244.433594 73.707031 244.199219 73.832031 243.953125 73.933594 C 243.707031 74.039062 243.453125 74.113281 243.191406 74.167969 C 242.929688 74.21875 242.664062 74.246094 242.398438 74.246094 C 242.132812 74.246094 241.867188 74.21875 241.605469 74.167969 C 241.34375 74.117188 241.089844 74.039062 240.84375 73.9375 C 240.59375 73.835938 240.359375 73.710938 240.140625 73.5625 C 239.917969 73.414062 239.710938 73.246094 239.523438 73.054688 C 239.335938 72.867188 239.167969 72.660156 239.019531 72.4375 C 238.871094 72.21875 238.746094 71.984375 238.644531 71.734375 C 238.542969 71.488281 238.464844 71.234375 238.414062 70.972656 C 238.359375 70.710938 238.335938 70.449219 238.335938 70.179688 C 238.335938 69.914062 238.363281 69.648438 238.414062 69.386719 C 238.464844 69.125 238.542969 68.871094 238.644531 68.625 C 238.746094 68.378906 238.871094 68.144531 239.019531 67.921875 C 239.167969 67.699219 239.335938 67.496094 239.527344 67.308594 L 233.300781 61.078125 L 228.511719 61.082031 L 223.570312 61.078125 L 101.632812 183.015625 L 101.621094 187.945312 C 101.621094 189.402344 101.617188 190.867188 101.621094 192.734375 L 107.847656 198.960938 C 108.640625 198.164062 109.597656 197.765625 110.722656 197.769531 C 111.84375 197.769531 112.800781 198.167969 113.59375 198.960938 C 113.785156 199.152344 113.953125 199.355469 114.101562 199.578125 C 114.25 199.800781 114.375 200.035156 114.476562 200.28125 C 114.578125 200.527344 114.65625 200.78125 114.707031 201.042969 C 114.757812 201.304688 114.785156 201.570312 114.785156 201.835938 C 114.785156 202.101562 114.757812 202.367188 114.707031 202.628906 C 114.65625 202.890625 114.578125 203.144531 114.476562 203.390625 C 114.375 203.636719 114.25 203.871094 114.101562 204.09375 C 113.953125 204.316406 113.785156 204.519531 113.59375 204.707031 L 118.332031 209.445312 C 119.125 208.648438 120.082031 208.253906 121.207031 208.253906 C 122.332031 208.253906 123.289062 208.652344 124.082031 209.449219 C 124.878906 210.246094 125.277344 211.203125 125.273438 212.328125 C 125.277344 213.449219 124.878906 214.40625 124.085938 215.199219 L 128.820312 219.933594 C 129.613281 219.140625 130.574219 218.742188 131.695312 218.742188 C 132.820312 218.742188 133.777344 219.140625 134.570312 219.9375 C 134.761719 220.128906 134.929688 220.332031 135.078125 220.554688 C 135.226562 220.777344 135.351562 221.011719 135.453125 221.257812 C 135.554688 221.503906 135.632812 221.757812 135.683594 222.019531 C 135.734375 222.28125 135.761719 222.546875 135.761719 222.8125 C 135.761719 223.078125 135.734375 223.34375 135.683594 223.605469 C 135.632812 223.867188 135.554688 224.121094 135.453125 224.367188 C 135.351562 224.613281 135.226562 224.847656 135.078125 225.070312 C 134.929688 225.292969 134.761719 225.496094 134.570312 225.683594 L 139.3125 230.425781 C 140.105469 229.632812 141.066406 229.234375 142.1875 229.234375 C 143.3125 229.234375 144.269531 229.632812 145.058594 230.425781 C 145.25 230.617188 145.417969 230.820312 145.566406 231.042969 C 145.714844 231.265625 145.839844 231.5 145.941406 231.746094 C 146.042969 231.992188 146.121094 232.246094 146.171875 232.507812 C 146.222656 232.769531 146.25 233.035156 146.25 233.300781 C 146.25 233.566406 146.222656 233.832031 146.171875 234.09375 C 146.121094 234.355469 146.042969 234.609375 145.941406 234.855469 C 145.839844 235.101562 145.714844 235.335938 145.566406 235.558594 C 145.417969 235.78125 145.25 235.984375 145.058594 236.171875 L 149.796875 240.910156 C 150.589844 240.117188 151.550781 239.71875 152.671875 239.71875 C 153.796875 239.71875 154.753906 240.117188 155.546875 240.914062 C 155.738281 241.105469 155.90625 241.308594 156.054688 241.53125 C 156.203125 241.753906 156.328125 241.988281 156.429688 242.234375 C 156.53125 242.480469 156.609375 242.734375 156.660156 242.996094 C 156.710938 243.257812 156.738281 243.523438 156.738281 243.789062 C 156.738281 244.054688 156.710938 244.320312 156.660156 244.582031 C 156.609375 244.84375 156.53125 245.097656 156.429688 245.34375 C 156.328125 245.589844 156.203125 245.824219 156.054688 246.046875 C 155.90625 246.269531 155.738281 246.472656 155.546875 246.660156 L 160.285156 251.398438 C 161.078125 250.605469 162.039062 250.207031 163.160156 250.207031 C 164.285156 250.207031 165.242188 250.605469 166.035156 251.40625 C 166.832031 252.199219 167.230469 253.15625 167.226562 254.277344 C 167.230469 255.402344 166.832031 256.359375 166.039062 257.152344 L 170.777344 261.890625 C 171.570312 261.09375 172.527344 260.695312 173.652344 260.699219 C 174.773438 260.699219 175.734375 261.097656 176.523438 261.894531 C 176.714844 262.082031 176.882812 262.285156 177.03125 262.507812 C 177.179688 262.730469 177.304688 262.964844 177.40625 263.210938 C 177.507812 263.457031 177.585938 263.710938 177.636719 263.972656 C 177.6875 264.234375 177.714844 264.5 177.714844 264.765625 C 177.714844 265.03125 177.6875 265.296875 177.636719 265.558594 C 177.585938 265.820312 177.507812 266.074219 177.40625 266.320312 C 177.304688 266.566406 177.179688 266.800781 177.03125 267.023438 C 176.882812 267.246094 176.714844 267.449219 176.523438 267.640625 L 182.75 273.867188 C 184.617188 273.867188 186.082031 273.867188 187.539062 273.863281 L 192.480469 273.867188 L 314.417969 151.929688 Z M 314.421875 146.988281 " fill-opacity="1" fill-rule="nonzero"/></g></g></g></g><g clip-path="url(#a822bdc1cf)"><g clip-path="url(#e326324318)"><g clip-path="url(#0c1d17cc48)"><g clip-path="url(#a0c03cd8b5)"><path fill="#ead7af" d="M 370.125 91.285156 C 370.125 89.828125 370.125 88.363281 370.125 86.5 L 363.898438 80.269531 C 363.707031 80.460938 363.503906 80.628906 363.28125 80.777344 C 363.058594 80.925781 362.824219 81.050781 362.578125 81.152344 C 362.332031 81.253906 362.078125 81.332031 361.816406 81.382812 C 361.554688 81.433594 361.289062 81.460938 361.023438 81.460938 C 360.757812 81.460938 360.492188 81.433594 360.230469 81.382812 C 359.96875 81.332031 359.714844 81.253906 359.46875 81.152344 C 359.222656 81.050781 358.988281 80.925781 358.765625 80.777344 C 358.546875 80.628906 358.339844 80.460938 358.152344 80.269531 C 357.960938 80.082031 357.792969 79.878906 357.644531 79.65625 C 357.496094 79.433594 357.371094 79.199219 357.269531 78.953125 C 357.167969 78.707031 357.089844 78.453125 357.039062 78.191406 C 356.988281 77.929688 356.960938 77.664062 356.960938 77.398438 C 356.960938 77.132812 356.988281 76.867188 357.039062 76.605469 C 357.089844 76.34375 357.167969 76.089844 357.269531 75.84375 C 357.371094 75.597656 357.496094 75.363281 357.644531 75.140625 C 357.792969 74.917969 357.960938 74.714844 358.152344 74.527344 L 353.410156 69.78125 C 353.21875 69.972656 353.015625 70.140625 352.792969 70.289062 C 352.570312 70.4375 352.335938 70.5625 352.089844 70.664062 C 351.84375 70.765625 351.589844 70.84375 351.328125 70.894531 C 351.066406 70.949219 350.800781 70.972656 350.535156 70.972656 C 350.265625 70.972656 350 70.949219 349.738281 70.894531 C 349.476562 70.84375 349.222656 70.765625 348.976562 70.664062 C 348.730469 70.5625 348.496094 70.4375 348.273438 70.289062 C 348.050781 70.140625 347.847656 69.972656 347.65625 69.78125 C 347.46875 69.59375 347.300781 69.390625 347.152344 69.167969 C 347.003906 68.945312 346.878906 68.710938 346.777344 68.464844 C 346.675781 68.21875 346.597656 67.960938 346.542969 67.699219 C 346.492188 67.4375 346.464844 67.175781 346.464844 66.90625 C 346.464844 66.640625 346.492188 66.375 346.542969 66.113281 C 346.597656 65.851562 346.675781 65.597656 346.777344 65.351562 C 346.878906 65.105469 347.003906 64.871094 347.152344 64.648438 C 347.300781 64.425781 347.46875 64.222656 347.65625 64.03125 L 342.921875 59.296875 C 342.734375 59.484375 342.527344 59.652344 342.304688 59.800781 C 342.085938 59.949219 341.851562 60.074219 341.605469 60.175781 C 341.359375 60.28125 341.105469 60.355469 340.84375 60.410156 C 340.582031 60.460938 340.316406 60.488281 340.050781 60.488281 C 339.78125 60.488281 339.519531 60.460938 339.257812 60.410156 C 338.996094 60.355469 338.742188 60.28125 338.496094 60.175781 C 338.246094 60.074219 338.015625 59.949219 337.792969 59.800781 C 337.570312 59.652344 337.363281 59.484375 337.175781 59.296875 C 336.988281 59.109375 336.820312 58.902344 336.671875 58.679688 C 336.523438 58.460938 336.398438 58.226562 336.296875 57.976562 C 336.195312 57.730469 336.117188 57.476562 336.0625 57.214844 C 336.011719 56.953125 335.984375 56.691406 335.984375 56.421875 C 335.984375 56.15625 336.011719 55.894531 336.0625 55.632812 C 336.117188 55.371094 336.195312 55.117188 336.296875 54.867188 C 336.398438 54.621094 336.523438 54.386719 336.671875 54.167969 C 336.820312 53.945312 336.988281 53.738281 337.175781 53.550781 L 332.429688 48.804688 C 332.242188 48.992188 332.035156 49.160156 331.8125 49.308594 C 331.59375 49.457031 331.359375 49.582031 331.113281 49.683594 C 330.863281 49.785156 330.609375 49.863281 330.347656 49.914062 C 330.085938 49.96875 329.824219 49.992188 329.554688 49.992188 C 329.289062 49.992188 329.027344 49.96875 328.765625 49.914062 C 328.503906 49.863281 328.25 49.785156 328 49.683594 C 327.753906 49.582031 327.519531 49.457031 327.300781 49.308594 C 327.078125 49.160156 326.871094 48.992188 326.683594 48.804688 C 326.496094 48.617188 326.328125 48.410156 326.179688 48.1875 C 326.03125 47.964844 325.90625 47.730469 325.804688 47.484375 C 325.699219 47.238281 325.625 46.984375 325.570312 46.722656 C 325.519531 46.460938 325.492188 46.199219 325.492188 45.929688 C 325.492188 45.664062 325.519531 45.398438 325.570312 45.136719 C 325.625 44.875 325.699219 44.621094 325.804688 44.375 C 325.90625 44.128906 326.03125 43.894531 326.179688 43.671875 C 326.328125 43.453125 326.496094 43.246094 326.683594 43.058594 L 321.945312 38.320312 C 321.757812 38.507812 321.550781 38.675781 321.332031 38.824219 C 321.109375 38.972656 320.875 39.097656 320.628906 39.203125 C 320.382812 39.304688 320.128906 39.378906 319.867188 39.433594 C 319.605469 39.484375 319.339844 39.511719 319.074219 39.511719 C 318.804688 39.511719 318.542969 39.484375 318.28125 39.433594 C 318.019531 39.378906 317.765625 39.304688 317.519531 39.203125 C 317.273438 39.097656 317.039062 38.972656 316.816406 38.824219 C 316.59375 38.675781 316.390625 38.507812 316.199219 38.320312 C 316.011719 38.132812 315.84375 37.925781 315.695312 37.703125 C 315.546875 37.484375 315.421875 37.25 315.320312 37.003906 C 315.21875 36.757812 315.140625 36.5 315.089844 36.242188 C 315.035156 35.980469 315.011719 35.714844 315.011719 35.449219 C 315.011719 35.179688 315.035156 34.917969 315.089844 34.65625 C 315.140625 34.394531 315.21875 34.140625 315.320312 33.894531 C 315.421875 33.644531 315.546875 33.410156 315.695312 33.191406 C 315.84375 32.96875 316.011719 32.761719 316.199219 32.574219 L 311.464844 27.835938 C 311.273438 28.027344 311.070312 28.195312 310.847656 28.34375 C 310.625 28.492188 310.390625 28.617188 310.144531 28.71875 C 309.898438 28.820312 309.644531 28.898438 309.378906 28.949219 C 309.117188 29.003906 308.855469 29.027344 308.585938 29.027344 C 308.320312 29.027344 308.054688 29.003906 307.792969 28.949219 C 307.53125 28.898438 307.277344 28.820312 307.03125 28.71875 C 306.785156 28.617188 306.550781 28.492188 306.328125 28.34375 C 306.105469 28.195312 305.902344 28.027344 305.710938 27.835938 C 305.523438 27.648438 305.355469 27.441406 305.207031 27.222656 C 305.058594 27 304.933594 26.765625 304.832031 26.519531 C 304.726562 26.269531 304.652344 26.015625 304.597656 25.753906 C 304.546875 25.492188 304.519531 25.230469 304.519531 24.960938 C 304.519531 24.695312 304.546875 24.429688 304.597656 24.167969 C 304.652344 23.90625 304.726562 23.652344 304.832031 23.40625 C 304.933594 23.160156 305.058594 22.925781 305.207031 22.703125 C 305.355469 22.480469 305.523438 22.273438 305.710938 22.085938 L 300.976562 17.347656 C 300.785156 17.539062 300.582031 17.707031 300.359375 17.855469 C 300.136719 18.003906 299.902344 18.128906 299.65625 18.230469 C 299.410156 18.332031 299.15625 18.410156 298.894531 18.460938 C 298.632812 18.511719 298.367188 18.539062 298.101562 18.539062 C 297.835938 18.539062 297.570312 18.511719 297.308594 18.460938 C 297.046875 18.410156 296.792969 18.332031 296.546875 18.230469 C 296.300781 18.128906 296.066406 18.003906 295.84375 17.855469 C 295.625 17.707031 295.417969 17.539062 295.230469 17.347656 C 295.039062 17.160156 294.871094 16.957031 294.722656 16.734375 C 294.574219 16.511719 294.449219 16.277344 294.347656 16.03125 C 294.246094 15.785156 294.167969 15.53125 294.117188 15.269531 C 294.066406 15.007812 294.039062 14.742188 294.039062 14.476562 C 294.039062 14.210938 294.066406 13.945312 294.117188 13.683594 C 294.167969 13.421875 294.246094 13.167969 294.347656 12.921875 C 294.449219 12.675781 294.574219 12.441406 294.722656 12.21875 C 294.871094 11.996094 295.039062 11.792969 295.230469 11.605469 L 289.003906 5.375 C 287.132812 5.371094 285.671875 5.375 284.214844 5.378906 L 279.273438 5.375 L 232.484375 52.164062 L 232.488281 57.105469 L 232.488281 61.890625 L 238.714844 68.121094 C 238.902344 67.929688 239.105469 67.761719 239.328125 67.613281 C 239.550781 67.464844 239.785156 67.339844 240.03125 67.238281 C 240.277344 67.136719 240.53125 67.058594 240.792969 67.007812 C 241.054688 66.957031 241.320312 66.929688 241.585938 66.929688 C 241.851562 66.929688 242.117188 66.957031 242.378906 67.007812 C 242.640625 67.058594 242.894531 67.136719 243.140625 67.238281 C 243.386719 67.339844 243.621094 67.464844 243.84375 67.613281 C 244.066406 67.761719 244.269531 67.929688 244.460938 68.121094 C 244.648438 68.308594 244.816406 68.511719 244.964844 68.734375 C 245.113281 68.957031 245.238281 69.191406 245.339844 69.4375 C 245.441406 69.683594 245.519531 69.9375 245.570312 70.199219 C 245.625 70.460938 245.648438 70.726562 245.648438 70.992188 C 245.648438 71.257812 245.625 71.523438 245.570312 71.785156 C 245.519531 72.046875 245.441406 72.300781 245.339844 72.546875 C 245.238281 72.792969 245.113281 73.027344 244.964844 73.25 C 244.816406 73.472656 244.648438 73.675781 244.460938 73.867188 L 249.195312 78.601562 C 249.386719 78.414062 249.589844 78.246094 249.8125 78.097656 C 250.035156 77.949219 250.269531 77.824219 250.515625 77.71875 C 250.761719 77.617188 251.015625 77.542969 251.277344 77.488281 C 251.539062 77.4375 251.804688 77.410156 252.070312 77.410156 C 252.339844 77.410156 252.601562 77.4375 252.863281 77.488281 C 253.125 77.542969 253.382812 77.617188 253.628906 77.71875 C 253.875 77.824219 254.109375 77.949219 254.332031 78.097656 C 254.554688 78.246094 254.757812 78.414062 254.945312 78.601562 C 255.136719 78.789062 255.304688 78.996094 255.453125 79.21875 C 255.601562 79.441406 255.726562 79.675781 255.828125 79.921875 C 255.929688 80.167969 256.007812 80.421875 256.058594 80.683594 C 256.113281 80.945312 256.136719 81.210938 256.136719 81.476562 C 256.136719 81.746094 256.113281 82.007812 256.058594 82.269531 C 256.007812 82.53125 255.929688 82.785156 255.828125 83.035156 C 255.726562 83.28125 255.601562 83.515625 255.453125 83.738281 C 255.304688 83.957031 255.136719 84.164062 254.945312 84.351562 L 259.675781 89.082031 C 259.863281 88.890625 260.070312 88.722656 260.289062 88.574219 C 260.511719 88.425781 260.746094 88.300781 260.992188 88.199219 C 261.238281 88.097656 261.492188 88.019531 261.753906 87.96875 C 262.015625 87.917969 262.28125 87.890625 262.546875 87.890625 C 262.816406 87.890625 263.078125 87.917969 263.339844 87.96875 C 263.601562 88.019531 263.855469 88.097656 264.101562 88.199219 C 264.347656 88.300781 264.582031 88.425781 264.804688 88.574219 C 265.027344 88.722656 265.234375 88.890625 265.421875 89.082031 C 265.609375 89.269531 265.777344 89.476562 265.925781 89.695312 C 266.074219 89.917969 266.199219 90.152344 266.300781 90.398438 C 266.402344 90.644531 266.480469 90.898438 266.53125 91.160156 C 266.585938 91.421875 266.609375 91.6875 266.609375 91.953125 C 266.609375 92.222656 266.585938 92.484375 266.53125 92.746094 C 266.480469 93.007812 266.402344 93.261719 266.300781 93.507812 C 266.199219 93.753906 266.074219 93.988281 265.925781 94.210938 C 265.777344 94.433594 265.609375 94.636719 265.421875 94.828125 L 270.167969 99.574219 C 270.355469 99.386719 270.5625 99.214844 270.785156 99.066406 C 271.003906 98.921875 271.238281 98.796875 271.484375 98.691406 C 271.734375 98.589844 271.988281 98.515625 272.25 98.460938 C 272.511719 98.410156 272.773438 98.382812 273.039062 98.382812 C 273.308594 98.382812 273.570312 98.410156 273.832031 98.460938 C 274.09375 98.515625 274.347656 98.589844 274.597656 98.691406 C 274.84375 98.796875 275.078125 98.921875 275.296875 99.066406 C 275.519531 99.214844 275.726562 99.386719 275.914062 99.574219 C 276.101562 99.761719 276.269531 99.96875 276.417969 100.1875 C 276.566406 100.410156 276.691406 100.644531 276.792969 100.890625 C 276.898438 101.136719 276.972656 101.390625 277.027344 101.652344 C 277.078125 101.914062 277.105469 102.179688 277.105469 102.445312 C 277.105469 102.714844 277.078125 102.976562 277.027344 103.238281 C 276.972656 103.5 276.898438 103.753906 276.792969 104 C 276.691406 104.246094 276.566406 104.480469 276.417969 104.703125 C 276.269531 104.925781 276.101562 105.132812 275.914062 105.320312 L 280.652344 110.058594 C 280.839844 109.867188 281.046875 109.699219 281.265625 109.550781 C 281.488281 109.402344 281.722656 109.277344 281.96875 109.175781 C 282.214844 109.074219 282.46875 108.996094 282.730469 108.945312 C 282.992188 108.894531 283.257812 108.867188 283.523438 108.867188 C 283.789062 108.867188 284.054688 108.894531 284.316406 108.945312 C 284.578125 108.996094 284.832031 109.074219 285.078125 109.175781 C 285.324219 109.277344 285.558594 109.402344 285.78125 109.550781 C 286.003906 109.699219 286.207031 109.867188 286.398438 110.058594 C 286.585938 110.246094 286.753906 110.449219 286.902344 110.671875 C 287.050781 110.894531 287.175781 111.128906 287.277344 111.375 C 287.378906 111.621094 287.457031 111.875 287.507812 112.136719 C 287.5625 112.398438 287.585938 112.664062 287.585938 112.929688 C 287.585938 113.195312 287.5625 113.460938 287.507812 113.722656 C 287.457031 113.984375 287.378906 114.238281 287.277344 114.484375 C 287.175781 114.730469 287.050781 114.964844 286.902344 115.1875 C 286.753906 115.410156 286.585938 115.613281 286.398438 115.804688 L 291.132812 120.539062 C 291.324219 120.351562 291.527344 120.183594 291.75 120.035156 C 291.972656 119.886719 292.207031 119.765625 292.453125 119.664062 C 292.699219 119.558594 292.953125 119.484375 293.214844 119.433594 C 293.476562 119.378906 293.742188 119.355469 294.007812 119.355469 C 294.273438 119.355469 294.539062 119.382812 294.800781 119.433594 C 295.0625 119.484375 295.316406 119.5625 295.5625 119.664062 C 295.808594 119.765625 296.042969 119.890625 296.265625 120.039062 C 296.484375 120.1875 296.691406 120.355469 296.878906 120.546875 C 297.070312 120.734375 297.238281 120.941406 297.386719 121.160156 C 297.535156 121.382812 297.660156 121.617188 297.761719 121.863281 C 297.863281 122.109375 297.941406 122.363281 297.992188 122.625 C 298.042969 122.886719 298.070312 123.152344 298.070312 123.417969 C 298.070312 123.683594 298.046875 123.949219 297.992188 124.210938 C 297.941406 124.472656 297.867188 124.726562 297.765625 124.972656 C 297.660156 125.21875 297.539062 125.453125 297.390625 125.675781 C 297.242188 125.898438 297.074219 126.101562 296.886719 126.292969 L 301.621094 131.027344 C 301.8125 130.839844 302.015625 130.671875 302.238281 130.523438 C 302.460938 130.375 302.695312 130.25 302.941406 130.148438 C 303.1875 130.046875 303.441406 129.96875 303.703125 129.917969 C 303.964844 129.863281 304.226562 129.839844 304.496094 129.839844 C 304.761719 129.839844 305.027344 129.863281 305.289062 129.917969 C 305.550781 129.96875 305.804688 130.046875 306.050781 130.148438 C 306.296875 130.25 306.53125 130.375 306.753906 130.523438 C 306.972656 130.671875 307.179688 130.839844 307.367188 131.027344 C 307.558594 131.214844 307.726562 131.421875 307.875 131.644531 C 308.023438 131.867188 308.148438 132.101562 308.25 132.347656 C 308.351562 132.59375 308.429688 132.847656 308.480469 133.109375 C 308.53125 133.371094 308.558594 133.632812 308.558594 133.902344 C 308.558594 134.167969 308.53125 134.433594 308.480469 134.695312 C 308.429688 134.957031 308.351562 135.210938 308.25 135.457031 C 308.148438 135.703125 308.023438 135.9375 307.875 136.160156 C 307.726562 136.378906 307.558594 136.585938 307.367188 136.773438 L 313.59375 143 L 323.324219 143 L 370.109375 96.214844 Z M 370.125 91.285156 " fill-opacity="1" fill-rule="nonzero"/></g></g></g></g><g clip-path="url(#a751ad92dd)"><g clip-path="url(#0197d5853d)"><g clip-path="url(#6b7e4261fc)"><g clip-path="url(#eb021a9278)"><path stroke-linecap="butt" transform="matrix(0.0624566, -0.0624566, 0.0624566, 0.0624566, 48.501964, 139.615789)" fill="none" stroke-linejoin="miter" d="M 133.002992 928.577997 L 1970.77957 928.577997 L 1970.77957 2071.434361 L 133.002992 2071.434361 Z M 133.002992 928.577997 " stroke="#c0383a" stroke-width="16" stroke-opacity="1" stroke-miterlimit="10"/></g></g></g></g><g clip-path="url(#69ffa45959)"><g clip-path="url(#146afc5f24)"><g clip-path="url(#0be86abf32)"><g clip-path="url(#92b43809c5)"><path fill="#c0383a" d="M 244.613281 59.476562 L 283.398438 20.691406 L 354.796875 92.089844 L 316.011719 130.875 Z M 244.613281 59.476562 " fill-opacity="1" fill-rule="nonzero"/></g></g></g></g><g clip-path="url(#6b76d6b31d)"><g clip-path="url(#b48a8c6ad3)"><g clip-path="url(#ad28f00304)"><g clip-path="url(#5fbb4a2036)"><path fill="#ead7af" d="M 146.488281 61.078125 L 141.703125 61.078125 L 135.472656 67.304688 C 135.664062 67.496094 135.832031 67.699219 135.980469 67.921875 C 136.128906 68.144531 136.253906 68.378906 136.355469 68.625 C 136.460938 68.871094 136.535156 69.125 136.589844 69.386719 C 136.640625 69.648438 136.667969 69.914062 136.667969 70.179688 C 136.667969 70.445312 136.640625 70.710938 136.589844 70.972656 C 136.539062 71.234375 136.460938 71.488281 136.359375 71.734375 C 136.257812 71.984375 136.132812 72.21875 135.984375 72.4375 C 135.835938 72.660156 135.667969 72.867188 135.476562 73.054688 C 135.289062 73.242188 135.082031 73.410156 134.859375 73.558594 C 134.640625 73.707031 134.40625 73.832031 134.15625 73.933594 C 133.910156 74.035156 133.65625 74.113281 133.394531 74.164062 C 133.132812 74.21875 132.871094 74.242188 132.601562 74.242188 C 132.335938 74.242188 132.070312 74.214844 131.808594 74.164062 C 131.546875 74.113281 131.292969 74.035156 131.046875 73.933594 C 130.800781 73.832031 130.566406 73.707031 130.34375 73.558594 C 130.121094 73.410156 129.917969 73.242188 129.730469 73.050781 L 124.984375 77.792969 C 125.175781 77.984375 125.34375 78.1875 125.492188 78.410156 C 125.640625 78.632812 125.765625 78.867188 125.867188 79.113281 C 125.96875 79.359375 126.046875 79.613281 126.097656 79.875 C 126.152344 80.136719 126.175781 80.402344 126.175781 80.667969 C 126.175781 80.9375 126.152344 81.203125 126.097656 81.464844 C 126.046875 81.726562 125.96875 81.980469 125.867188 82.226562 C 125.765625 82.472656 125.640625 82.707031 125.492188 82.929688 C 125.34375 83.152344 125.175781 83.355469 124.984375 83.546875 C 124.796875 83.734375 124.59375 83.902344 124.371094 84.050781 C 124.148438 84.199219 123.914062 84.324219 123.667969 84.425781 C 123.421875 84.527344 123.164062 84.605469 122.902344 84.660156 C 122.640625 84.710938 122.378906 84.738281 122.109375 84.738281 C 121.84375 84.738281 121.578125 84.710938 121.316406 84.660156 C 121.054688 84.605469 120.800781 84.527344 120.554688 84.425781 C 120.308594 84.324219 120.074219 84.199219 119.851562 84.050781 C 119.628906 83.902344 119.425781 83.734375 119.234375 83.546875 L 114.5 88.28125 C 114.6875 88.46875 114.859375 88.675781 115.007812 88.894531 C 115.15625 89.117188 115.28125 89.351562 115.382812 89.597656 C 115.484375 89.84375 115.5625 90.101562 115.613281 90.363281 C 115.667969 90.625 115.691406 90.886719 115.691406 91.15625 C 115.691406 91.421875 115.667969 91.6875 115.613281 91.949219 C 115.5625 92.210938 115.484375 92.464844 115.382812 92.710938 C 115.28125 92.957031 115.15625 93.191406 115.007812 93.414062 C 114.859375 93.636719 114.691406 93.839844 114.503906 94.03125 C 114.3125 94.21875 114.109375 94.386719 113.886719 94.535156 C 113.664062 94.683594 113.429688 94.808594 113.183594 94.910156 C 112.9375 95.011719 112.683594 95.089844 112.421875 95.140625 C 112.160156 95.195312 111.894531 95.21875 111.628906 95.21875 C 111.359375 95.21875 111.097656 95.195312 110.835938 95.140625 C 110.574219 95.089844 110.320312 95.011719 110.070312 94.910156 C 109.824219 94.808594 109.589844 94.679688 109.371094 94.53125 C 109.148438 94.382812 108.941406 94.214844 108.753906 94.027344 L 104.007812 98.773438 C 104.195312 98.960938 104.363281 99.167969 104.511719 99.390625 C 104.660156 99.609375 104.789062 99.84375 104.890625 100.089844 C 104.992188 100.339844 105.070312 100.59375 105.121094 100.855469 C 105.175781 101.117188 105.199219 101.378906 105.199219 101.648438 C 105.199219 101.914062 105.175781 102.179688 105.121094 102.441406 C 105.070312 102.703125 104.992188 102.957031 104.890625 103.203125 C 104.789062 103.449219 104.664062 103.683594 104.515625 103.90625 C 104.367188 104.128906 104.199219 104.332031 104.011719 104.523438 C 103.820312 104.710938 103.617188 104.878906 103.394531 105.027344 C 103.171875 105.175781 102.9375 105.300781 102.691406 105.402344 C 102.445312 105.507812 102.191406 105.582031 101.929688 105.636719 C 101.667969 105.6875 101.402344 105.710938 101.136719 105.710938 C 100.867188 105.710938 100.605469 105.6875 100.34375 105.632812 C 100.078125 105.582031 99.824219 105.503906 99.578125 105.402344 C 99.332031 105.300781 99.097656 105.175781 98.875 105.027344 C 98.65625 104.878906 98.449219 104.707031 98.261719 104.519531 L 93.523438 109.257812 C 93.710938 109.445312 93.882812 109.652344 94.03125 109.871094 C 94.179688 110.09375 94.304688 110.328125 94.40625 110.574219 C 94.507812 110.820312 94.585938 111.074219 94.636719 111.335938 C 94.691406 111.597656 94.714844 111.863281 94.71875 112.128906 C 94.71875 112.398438 94.691406 112.664062 94.640625 112.925781 C 94.585938 113.1875 94.511719 113.441406 94.40625 113.6875 C 94.304688 113.933594 94.179688 114.167969 94.03125 114.390625 C 93.882812 114.613281 93.714844 114.816406 93.527344 115.007812 C 93.339844 115.195312 93.132812 115.363281 92.910156 115.511719 C 92.6875 115.660156 92.453125 115.785156 92.207031 115.886719 C 91.960938 115.988281 91.707031 116.066406 91.445312 116.117188 C 91.183594 116.171875 90.917969 116.195312 90.652344 116.195312 C 90.382812 116.195312 90.121094 116.167969 89.859375 116.117188 C 89.597656 116.066406 89.34375 115.988281 89.097656 115.886719 C 88.847656 115.78125 88.613281 115.65625 88.394531 115.507812 C 88.171875 115.359375 87.964844 115.191406 87.777344 115.003906 L 83.039062 119.738281 C 83.230469 119.929688 83.398438 120.132812 83.546875 120.355469 C 83.695312 120.578125 83.820312 120.8125 83.921875 121.058594 C 84.023438 121.304688 84.101562 121.558594 84.152344 121.824219 C 84.207031 122.085938 84.230469 122.347656 84.230469 122.617188 C 84.230469 122.882812 84.207031 123.148438 84.152344 123.410156 C 84.101562 123.671875 84.023438 123.925781 83.921875 124.171875 C 83.820312 124.417969 83.695312 124.652344 83.546875 124.875 C 83.398438 125.097656 83.230469 125.300781 83.039062 125.492188 C 82.851562 125.679688 82.644531 125.847656 82.425781 125.996094 C 82.203125 126.144531 81.96875 126.269531 81.722656 126.371094 C 81.472656 126.476562 81.21875 126.550781 80.957031 126.605469 C 80.695312 126.65625 80.433594 126.683594 80.164062 126.683594 C 79.898438 126.683594 79.632812 126.65625 79.371094 126.605469 C 79.109375 126.550781 78.855469 126.476562 78.609375 126.371094 C 78.363281 126.269531 78.128906 126.144531 77.90625 125.996094 C 77.683594 125.847656 77.476562 125.679688 77.289062 125.492188 L 72.550781 130.226562 C 72.742188 130.417969 72.910156 130.621094 73.058594 130.84375 C 73.207031 131.066406 73.332031 131.300781 73.433594 131.546875 C 73.539062 131.792969 73.613281 132.046875 73.667969 132.308594 C 73.71875 132.570312 73.746094 132.835938 73.746094 133.101562 C 73.746094 133.367188 73.71875 133.632812 73.667969 133.894531 C 73.617188 134.15625 73.539062 134.410156 73.4375 134.65625 C 73.335938 134.90625 73.210938 135.140625 73.0625 135.359375 C 72.914062 135.582031 72.746094 135.789062 72.554688 135.976562 C 72.367188 136.164062 72.160156 136.332031 71.9375 136.480469 C 71.71875 136.628906 71.484375 136.753906 71.234375 136.855469 C 70.988281 136.957031 70.734375 137.035156 70.472656 137.085938 C 70.210938 137.140625 69.949219 137.164062 69.679688 137.164062 C 69.414062 137.164062 69.148438 137.136719 68.886719 137.085938 C 68.625 137.035156 68.371094 136.957031 68.125 136.855469 C 67.878906 136.753906 67.644531 136.628906 67.421875 136.480469 C 67.199219 136.332031 66.996094 136.164062 66.808594 135.972656 L 60.578125 142.199219 L 60.582031 146.988281 L 60.578125 151.929688 L 182.515625 273.867188 L 187.445312 273.878906 C 188.902344 273.878906 190.367188 273.882812 192.234375 273.878906 L 198.460938 267.652344 C 197.664062 266.859375 197.265625 265.902344 197.269531 264.777344 C 197.269531 263.65625 197.667969 262.699219 198.460938 261.90625 C 198.652344 261.714844 198.855469 261.546875 199.078125 261.398438 C 199.300781 261.25 199.535156 261.125 199.78125 261.023438 C 200.027344 260.921875 200.28125 260.84375 200.542969 260.792969 C 200.804688 260.742188 201.070312 260.714844 201.335938 260.714844 C 201.601562 260.714844 201.867188 260.742188 202.128906 260.792969 C 202.390625 260.84375 202.644531 260.921875 202.890625 261.023438 C 203.136719 261.125 203.371094 261.25 203.59375 261.398438 C 203.816406 261.546875 204.019531 261.714844 204.207031 261.90625 L 208.945312 257.167969 C 208.148438 256.375 207.753906 255.417969 207.753906 254.292969 C 207.753906 253.167969 208.152344 252.210938 208.949219 251.417969 C 209.746094 250.621094 210.703125 250.222656 211.828125 250.226562 C 212.949219 250.222656 213.90625 250.621094 214.699219 251.414062 L 219.433594 246.679688 C 218.640625 245.886719 218.242188 244.925781 218.242188 243.804688 C 218.242188 242.679688 218.640625 241.722656 219.4375 240.929688 C 219.628906 240.738281 219.832031 240.570312 220.054688 240.421875 C 220.277344 240.273438 220.511719 240.148438 220.757812 240.046875 C 221.003906 239.945312 221.257812 239.867188 221.519531 239.816406 C 221.78125 239.765625 222.046875 239.738281 222.3125 239.738281 C 222.578125 239.738281 222.84375 239.765625 223.105469 239.816406 C 223.367188 239.867188 223.621094 239.945312 223.867188 240.046875 C 224.113281 240.148438 224.347656 240.273438 224.570312 240.421875 C 224.792969 240.570312 224.996094 240.738281 225.183594 240.929688 L 229.925781 236.1875 C 229.132812 235.394531 228.734375 234.433594 228.734375 233.3125 C 228.734375 232.1875 229.132812 231.230469 229.925781 230.441406 C 230.117188 230.25 230.320312 230.082031 230.542969 229.933594 C 230.765625 229.785156 231 229.660156 231.246094 229.558594 C 231.492188 229.457031 231.746094 229.378906 232.007812 229.328125 C 232.269531 229.277344 232.535156 229.25 232.800781 229.25 C 233.066406 229.25 233.332031 229.277344 233.59375 229.328125 C 233.855469 229.378906 234.109375 229.457031 234.355469 229.558594 C 234.601562 229.660156 234.835938 229.785156 235.058594 229.933594 C 235.28125 230.082031 235.484375 230.25 235.671875 230.441406 L 240.410156 225.703125 C 239.617188 224.910156 239.21875 223.949219 239.21875 222.828125 C 239.21875 221.703125 239.617188 220.746094 240.414062 219.953125 C 240.605469 219.761719 240.808594 219.59375 241.03125 219.445312 C 241.253906 219.296875 241.488281 219.171875 241.734375 219.070312 C 241.980469 218.96875 242.234375 218.890625 242.496094 218.839844 C 242.757812 218.789062 243.023438 218.761719 243.289062 218.761719 C 243.554688 218.761719 243.820312 218.789062 244.082031 218.839844 C 244.34375 218.890625 244.597656 218.96875 244.84375 219.070312 C 245.089844 219.171875 245.324219 219.296875 245.546875 219.445312 C 245.769531 219.59375 245.972656 219.761719 246.160156 219.953125 L 250.898438 215.214844 C 250.105469 214.421875 249.707031 213.460938 249.707031 212.339844 C 249.707031 211.214844 250.105469 210.257812 250.90625 209.464844 C 251.699219 208.667969 252.65625 208.269531 253.777344 208.273438 C 254.902344 208.269531 255.859375 208.667969 256.652344 209.460938 L 261.390625 204.722656 C 260.59375 203.929688 260.195312 202.972656 260.199219 201.847656 C 260.199219 200.726562 260.597656 199.765625 261.394531 198.976562 C 261.582031 198.785156 261.785156 198.617188 262.007812 198.46875 C 262.230469 198.320312 262.464844 198.195312 262.710938 198.09375 C 262.957031 197.992188 263.210938 197.914062 263.472656 197.863281 C 263.734375 197.8125 264 197.785156 264.265625 197.785156 C 264.53125 197.785156 264.796875 197.8125 265.058594 197.863281 C 265.320312 197.914062 265.574219 197.992188 265.820312 198.09375 C 266.066406 198.195312 266.300781 198.320312 266.523438 198.46875 C 266.746094 198.617188 266.949219 198.785156 267.140625 198.976562 L 273.367188 192.75 C 273.367188 190.882812 273.367188 189.417969 273.363281 187.960938 L 273.367188 183.019531 L 151.429688 61.082031 Z M 146.488281 61.078125 " fill-opacity="1" fill-rule="nonzero"/></g></g></g></g><g clip-path="url(#1b426e193c)"><g clip-path="url(#2631758407)"><g clip-path="url(#de3c1dcf91)"><g clip-path="url(#73a21af101)"><path fill="#ead7af" d="M 90.785156 5.375 C 89.328125 5.375 87.863281 5.375 86 5.375 L 79.769531 11.601562 C 79.960938 11.792969 80.128906 11.996094 80.277344 12.21875 C 80.425781 12.441406 80.550781 12.675781 80.652344 12.921875 C 80.753906 13.167969 80.832031 13.421875 80.882812 13.683594 C 80.933594 13.945312 80.960938 14.210938 80.960938 14.476562 C 80.960938 14.742188 80.933594 15.007812 80.882812 15.269531 C 80.832031 15.53125 80.753906 15.785156 80.652344 16.03125 C 80.550781 16.277344 80.425781 16.511719 80.277344 16.734375 C 80.128906 16.953125 79.960938 17.160156 79.769531 17.347656 C 79.582031 17.539062 79.378906 17.707031 79.15625 17.855469 C 78.933594 18.003906 78.699219 18.128906 78.453125 18.230469 C 78.207031 18.332031 77.953125 18.410156 77.691406 18.460938 C 77.429688 18.511719 77.164062 18.539062 76.898438 18.539062 C 76.632812 18.539062 76.367188 18.511719 76.105469 18.460938 C 75.84375 18.410156 75.589844 18.332031 75.34375 18.230469 C 75.097656 18.128906 74.863281 18.003906 74.640625 17.855469 C 74.417969 17.707031 74.214844 17.539062 74.027344 17.347656 L 69.28125 22.089844 C 69.472656 22.28125 69.640625 22.484375 69.789062 22.707031 C 69.9375 22.929688 70.0625 23.164062 70.164062 23.410156 C 70.265625 23.65625 70.34375 23.910156 70.394531 24.171875 C 70.449219 24.433594 70.472656 24.699219 70.472656 24.964844 C 70.472656 25.234375 70.449219 25.5 70.394531 25.761719 C 70.34375 26.023438 70.265625 26.277344 70.164062 26.523438 C 70.0625 26.769531 69.9375 27.003906 69.789062 27.226562 C 69.640625 27.449219 69.472656 27.652344 69.28125 27.84375 C 69.09375 28.03125 68.890625 28.199219 68.667969 28.347656 C 68.445312 28.496094 68.210938 28.621094 67.964844 28.722656 C 67.71875 28.824219 67.460938 28.902344 67.199219 28.957031 C 66.9375 29.007812 66.675781 29.035156 66.40625 29.035156 C 66.140625 29.035156 65.875 29.007812 65.613281 28.957031 C 65.351562 28.902344 65.097656 28.824219 64.851562 28.722656 C 64.605469 28.621094 64.371094 28.496094 64.148438 28.347656 C 63.925781 28.199219 63.722656 28.03125 63.53125 27.84375 L 58.796875 32.578125 C 58.984375 32.765625 59.152344 32.972656 59.300781 33.195312 C 59.449219 33.414062 59.574219 33.648438 59.675781 33.894531 C 59.78125 34.140625 59.855469 34.394531 59.910156 34.65625 C 59.960938 34.917969 59.988281 35.183594 59.988281 35.449219 C 59.988281 35.71875 59.960938 35.980469 59.910156 36.242188 C 59.855469 36.503906 59.78125 36.757812 59.675781 37.003906 C 59.574219 37.253906 59.449219 37.484375 59.300781 37.707031 C 59.152344 37.929688 58.984375 38.136719 58.796875 38.324219 C 58.609375 38.511719 58.402344 38.679688 58.179688 38.828125 C 57.960938 38.976562 57.726562 39.101562 57.476562 39.203125 C 57.230469 39.304688 56.976562 39.382812 56.714844 39.4375 C 56.453125 39.488281 56.191406 39.515625 55.921875 39.515625 C 55.65625 39.515625 55.394531 39.488281 55.132812 39.4375 C 54.871094 39.382812 54.617188 39.304688 54.367188 39.203125 C 54.121094 39.101562 53.886719 38.976562 53.667969 38.828125 C 53.445312 38.679688 53.238281 38.511719 53.050781 38.324219 L 48.304688 43.070312 C 48.492188 43.257812 48.660156 43.464844 48.808594 43.6875 C 48.957031 43.90625 49.082031 44.140625 49.183594 44.386719 C 49.285156 44.636719 49.363281 44.890625 49.414062 45.152344 C 49.46875 45.414062 49.492188 45.675781 49.492188 45.945312 C 49.492188 46.210938 49.46875 46.472656 49.414062 46.734375 C 49.363281 46.996094 49.285156 47.25 49.183594 47.5 C 49.082031 47.746094 48.957031 47.980469 48.808594 48.199219 C 48.660156 48.421875 48.492188 48.628906 48.304688 48.816406 C 48.117188 49.003906 47.910156 49.171875 47.6875 49.320312 C 47.464844 49.46875 47.230469 49.59375 46.984375 49.695312 C 46.738281 49.800781 46.484375 49.875 46.222656 49.929688 C 45.960938 49.980469 45.699219 50.007812 45.429688 50.007812 C 45.164062 50.007812 44.898438 49.980469 44.636719 49.929688 C 44.375 49.875 44.121094 49.800781 43.875 49.695312 C 43.628906 49.59375 43.394531 49.46875 43.171875 49.320312 C 42.953125 49.171875 42.746094 49.003906 42.558594 48.816406 L 37.820312 53.554688 C 38.007812 53.742188 38.175781 53.949219 38.324219 54.167969 C 38.472656 54.390625 38.597656 54.625 38.703125 54.871094 C 38.804688 55.117188 38.878906 55.371094 38.933594 55.632812 C 38.984375 55.894531 39.011719 56.160156 39.011719 56.425781 C 39.011719 56.695312 38.984375 56.957031 38.933594 57.21875 C 38.878906 57.480469 38.804688 57.734375 38.703125 57.980469 C 38.597656 58.226562 38.472656 58.460938 38.324219 58.683594 C 38.175781 58.90625 38.007812 59.109375 37.820312 59.300781 C 37.632812 59.488281 37.425781 59.65625 37.203125 59.804688 C 36.984375 59.953125 36.75 60.078125 36.503906 60.179688 C 36.257812 60.28125 36 60.359375 35.742188 60.410156 C 35.480469 60.464844 35.214844 60.488281 34.949219 60.488281 C 34.679688 60.488281 34.417969 60.464844 34.15625 60.410156 C 33.894531 60.359375 33.640625 60.28125 33.394531 60.179688 C 33.144531 60.078125 32.910156 59.953125 32.691406 59.804688 C 32.46875 59.65625 32.261719 59.488281 32.074219 59.300781 L 27.335938 64.035156 C 27.527344 64.226562 27.695312 64.429688 27.84375 64.652344 C 27.992188 64.875 28.117188 65.109375 28.21875 65.355469 C 28.320312 65.601562 28.398438 65.855469 28.449219 66.121094 C 28.503906 66.382812 28.527344 66.644531 28.527344 66.914062 C 28.527344 67.179688 28.503906 67.445312 28.449219 67.707031 C 28.398438 67.96875 28.320312 68.222656 28.21875 68.46875 C 28.117188 68.714844 27.992188 68.949219 27.84375 69.171875 C 27.695312 69.394531 27.527344 69.597656 27.335938 69.789062 C 27.148438 69.976562 26.941406 70.144531 26.722656 70.292969 C 26.5 70.441406 26.265625 70.566406 26.019531 70.667969 C 25.769531 70.773438 25.515625 70.847656 25.253906 70.902344 C 24.992188 70.953125 24.730469 70.980469 24.460938 70.980469 C 24.195312 70.980469 23.929688 70.953125 23.667969 70.902344 C 23.40625 70.847656 23.152344 70.773438 22.90625 70.667969 C 22.660156 70.566406 22.425781 70.441406 22.203125 70.292969 C 21.980469 70.144531 21.773438 69.976562 21.585938 69.789062 L 16.847656 74.523438 C 17.039062 74.714844 17.207031 74.917969 17.355469 75.140625 C 17.503906 75.363281 17.628906 75.597656 17.730469 75.84375 C 17.832031 76.089844 17.910156 76.34375 17.960938 76.605469 C 18.011719 76.867188 18.039062 77.132812 18.039062 77.398438 C 18.039062 77.664062 18.011719 77.929688 17.960938 78.191406 C 17.910156 78.453125 17.832031 78.707031 17.730469 78.953125 C 17.628906 79.199219 17.503906 79.433594 17.355469 79.65625 C 17.207031 79.875 17.039062 80.082031 16.847656 80.269531 C 16.660156 80.460938 16.457031 80.628906 16.234375 80.777344 C 16.011719 80.925781 15.777344 81.050781 15.53125 81.152344 C 15.285156 81.253906 15.03125 81.332031 14.769531 81.382812 C 14.507812 81.433594 14.242188 81.460938 13.976562 81.460938 C 13.710938 81.460938 13.445312 81.433594 13.183594 81.382812 C 12.921875 81.332031 12.667969 81.253906 12.421875 81.152344 C 12.175781 81.050781 11.941406 80.925781 11.71875 80.777344 C 11.496094 80.628906 11.292969 80.460938 11.105469 80.269531 L 4.875 86.496094 C 4.871094 88.367188 4.875 89.828125 4.878906 91.285156 L 4.875 96.226562 L 51.664062 143.015625 L 56.605469 143.011719 L 61.390625 143.011719 L 67.621094 136.785156 C 67.429688 136.597656 67.261719 136.394531 67.113281 136.171875 C 66.964844 135.949219 66.839844 135.714844 66.738281 135.46875 C 66.636719 135.222656 66.558594 134.96875 66.507812 134.707031 C 66.457031 134.445312 66.429688 134.179688 66.429688 133.914062 C 66.429688 133.648438 66.457031 133.382812 66.507812 133.121094 C 66.558594 132.859375 66.636719 132.605469 66.738281 132.359375 C 66.839844 132.113281 66.964844 131.878906 67.113281 131.65625 C 67.261719 131.433594 67.429688 131.230469 67.621094 131.039062 C 67.808594 130.851562 68.011719 130.683594 68.234375 130.535156 C 68.457031 130.386719 68.691406 130.261719 68.9375 130.160156 C 69.183594 130.058594 69.4375 129.980469 69.699219 129.929688 C 69.960938 129.875 70.226562 129.851562 70.492188 129.851562 C 70.757812 129.851562 71.023438 129.875 71.285156 129.929688 C 71.546875 129.980469 71.800781 130.058594 72.046875 130.160156 C 72.292969 130.261719 72.527344 130.386719 72.75 130.535156 C 72.972656 130.683594 73.175781 130.851562 73.367188 131.039062 L 78.101562 126.304688 C 77.914062 126.113281 77.746094 125.910156 77.597656 125.6875 C 77.449219 125.464844 77.324219 125.230469 77.21875 124.984375 C 77.117188 124.738281 77.042969 124.484375 76.988281 124.222656 C 76.9375 123.960938 76.910156 123.695312 76.910156 123.429688 C 76.910156 123.160156 76.9375 122.898438 76.988281 122.636719 C 77.042969 122.375 77.117188 122.117188 77.21875 121.871094 C 77.324219 121.625 77.449219 121.390625 77.597656 121.167969 C 77.746094 120.945312 77.914062 120.742188 78.101562 120.554688 C 78.289062 120.363281 78.496094 120.195312 78.71875 120.046875 C 78.941406 119.898438 79.175781 119.773438 79.421875 119.671875 C 79.667969 119.570312 79.921875 119.492188 80.183594 119.441406 C 80.445312 119.386719 80.710938 119.363281 80.976562 119.363281 C 81.246094 119.363281 81.507812 119.386719 81.769531 119.441406 C 82.03125 119.492188 82.285156 119.570312 82.535156 119.671875 C 82.78125 119.773438 83.015625 119.898438 83.238281 120.046875 C 83.457031 120.195312 83.664062 120.363281 83.851562 120.554688 L 88.582031 115.824219 C 88.390625 115.636719 88.222656 115.429688 88.074219 115.210938 C 87.925781 114.988281 87.800781 114.753906 87.699219 114.507812 C 87.597656 114.261719 87.519531 114.007812 87.46875 113.746094 C 87.417969 113.484375 87.390625 113.21875 87.390625 112.953125 C 87.390625 112.683594 87.417969 112.421875 87.46875 112.160156 C 87.519531 111.898438 87.597656 111.644531 87.699219 111.398438 C 87.800781 111.152344 87.925781 110.917969 88.074219 110.695312 C 88.222656 110.472656 88.390625 110.265625 88.582031 110.078125 C 88.769531 109.890625 88.976562 109.722656 89.195312 109.574219 C 89.417969 109.425781 89.652344 109.300781 89.898438 109.199219 C 90.144531 109.097656 90.398438 109.019531 90.660156 108.96875 C 90.921875 108.914062 91.1875 108.890625 91.453125 108.890625 C 91.722656 108.890625 91.984375 108.914062 92.246094 108.96875 C 92.507812 109.019531 92.761719 109.097656 93.007812 109.199219 C 93.253906 109.300781 93.488281 109.425781 93.710938 109.574219 C 93.933594 109.722656 94.136719 109.890625 94.328125 110.078125 L 99.074219 105.332031 C 98.886719 105.144531 98.714844 104.9375 98.566406 104.714844 C 98.421875 104.496094 98.296875 104.261719 98.191406 104.015625 C 98.089844 103.765625 98.015625 103.511719 97.960938 103.25 C 97.910156 102.988281 97.882812 102.726562 97.882812 102.460938 C 97.882812 102.191406 97.910156 101.929688 97.960938 101.667969 C 98.015625 101.40625 98.089844 101.152344 98.191406 100.902344 C 98.296875 100.65625 98.421875 100.421875 98.566406 100.203125 C 98.714844 99.980469 98.886719 99.773438 99.074219 99.585938 C 99.261719 99.398438 99.46875 99.230469 99.6875 99.082031 C 99.910156 98.933594 100.144531 98.808594 100.390625 98.707031 C 100.636719 98.601562 100.890625 98.527344 101.152344 98.472656 C 101.414062 98.421875 101.679688 98.394531 101.945312 98.394531 C 102.214844 98.394531 102.476562 98.421875 102.738281 98.472656 C 103 98.527344 103.253906 98.601562 103.5 98.707031 C 103.746094 98.808594 103.980469 98.933594 104.203125 99.082031 C 104.425781 99.230469 104.632812 99.398438 104.820312 99.585938 L 109.558594 94.847656 C 109.367188 94.660156 109.199219 94.453125 109.050781 94.234375 C 108.902344 94.011719 108.777344 93.777344 108.675781 93.53125 C 108.574219 93.285156 108.496094 93.03125 108.445312 92.769531 C 108.394531 92.507812 108.367188 92.242188 108.367188 91.976562 C 108.367188 91.710938 108.394531 91.445312 108.445312 91.183594 C 108.496094 90.921875 108.574219 90.667969 108.675781 90.421875 C 108.777344 90.175781 108.902344 89.941406 109.050781 89.71875 C 109.199219 89.496094 109.367188 89.292969 109.558594 89.101562 C 109.746094 88.914062 109.949219 88.746094 110.171875 88.597656 C 110.394531 88.449219 110.628906 88.324219 110.875 88.222656 C 111.121094 88.121094 111.375 88.042969 111.636719 87.992188 C 111.898438 87.9375 112.164062 87.914062 112.429688 87.914062 C 112.695312 87.914062 112.960938 87.9375 113.222656 87.992188 C 113.484375 88.042969 113.738281 88.121094 113.984375 88.222656 C 114.230469 88.324219 114.464844 88.449219 114.6875 88.597656 C 114.910156 88.746094 115.113281 88.914062 115.304688 89.101562 L 120.039062 84.367188 C 119.851562 84.175781 119.683594 83.972656 119.535156 83.75 C 119.386719 83.527344 119.265625 83.292969 119.164062 83.046875 C 119.058594 82.800781 118.984375 82.546875 118.933594 82.285156 C 118.878906 82.023438 118.855469 81.757812 118.855469 81.492188 C 118.855469 81.226562 118.882812 80.960938 118.933594 80.699219 C 118.984375 80.4375 119.0625 80.183594 119.164062 79.9375 C 119.265625 79.691406 119.390625 79.457031 119.539062 79.234375 C 119.6875 79.015625 119.855469 78.808594 120.046875 78.621094 C 120.234375 78.429688 120.441406 78.261719 120.660156 78.113281 C 120.882812 77.964844 121.117188 77.839844 121.363281 77.738281 C 121.609375 77.636719 121.863281 77.558594 122.125 77.507812 C 122.386719 77.457031 122.652344 77.429688 122.917969 77.429688 C 123.183594 77.429688 123.449219 77.453125 123.710938 77.507812 C 123.972656 77.558594 124.226562 77.632812 124.472656 77.734375 C 124.71875 77.839844 124.953125 77.960938 125.175781 78.109375 C 125.398438 78.257812 125.601562 78.425781 125.792969 78.613281 L 130.527344 73.878906 C 130.339844 73.6875 130.171875 73.484375 130.023438 73.261719 C 129.875 73.039062 129.75 72.804688 129.648438 72.558594 C 129.546875 72.3125 129.46875 72.058594 129.417969 71.796875 C 129.363281 71.535156 129.339844 71.273438 129.339844 71.003906 C 129.339844 70.738281 129.363281 70.472656 129.417969 70.210938 C 129.46875 69.949219 129.546875 69.695312 129.648438 69.449219 C 129.75 69.203125 129.875 68.96875 130.023438 68.746094 C 130.171875 68.527344 130.339844 68.320312 130.527344 68.132812 C 130.714844 67.941406 130.921875 67.773438 131.144531 67.625 C 131.367188 67.476562 131.601562 67.351562 131.847656 67.25 C 132.09375 67.148438 132.347656 67.070312 132.609375 67.019531 C 132.871094 66.96875 133.132812 66.941406 133.402344 66.941406 C 133.667969 66.941406 133.933594 66.96875 134.195312 67.019531 C 134.457031 67.070312 134.710938 67.148438 134.957031 67.25 C 135.203125 67.351562 135.4375 67.476562 135.660156 67.625 C 135.878906 67.773438 136.085938 67.941406 136.273438 68.132812 L 142.5 61.90625 L 142.5 52.175781 L 95.714844 5.390625 Z M 90.785156 5.375 " fill-opacity="1" fill-rule="nonzero"/></g></g></g></g><g clip-path="url(#60af00a230)"><g clip-path="url(#e227a13b2a)"><g clip-path="url(#3d17b40b9a)"><g clip-path="url(#282c0c8e53)"><path stroke-linecap="butt" transform="matrix(-0.0624566, -0.0624566, 0.0624566, -0.0624566, 139.115796, 326.998004)" fill="none" stroke-linejoin="miter" d="M 133.00279 928.577683 L 1970.779369 928.577683 L 1970.779369 2071.434048 L 133.00279 2071.434048 Z M 133.00279 928.577683 " stroke="#c0383a" stroke-width="16" stroke-opacity="1" stroke-miterlimit="10"/></g></g></g></g><g clip-path="url(#9b90d48e66)"><g clip-path="url(#71687ac805)"><g clip-path="url(#d19262515d)"><g clip-path="url(#d2fa68c247)"><path fill="#c0383a" d="M 58.976562 130.886719 L 20.191406 92.101562 L 91.589844 20.703125 L 130.375 59.488281 Z M 58.976562 130.886719 " fill-opacity="1" fill-rule="nonzero"/></g></g></g></g></g></g></svg>